<?xml version="1.0" encoding="iso-8859-1"?>
<!-- Generator: Adobe Illustrator 19.0.0, SVG Export Plug-In . SVG Version: 6.00 Build 0)  -->
<svg xmlns="http://www.w3.org/2000/svg" xmlns:xlink="http://www.w3.org/1999/xlink" version="1.1" id="Layer_1" x="0px" y="0px" viewBox="0 0 512 512" style="enable-background:new 0 0 512 512;" xml:space="preserve" width="512px" height="512px">
<g>
	<g>
		<g>
			<path d="M213.333,187.733H179.2c-4.719,0-8.533,3.823-8.533,8.533s3.814,8.533,8.533,8.533h34.133     c4.719,0,8.533-3.823,8.533-8.533S218.052,187.733,213.333,187.733z" fill="#FFFFFF"/>
			<path d="M213.333,238.933H179.2c-4.719,0-8.533,3.823-8.533,8.533S174.481,256,179.2,256h34.133c4.719,0,8.533-3.823,8.533-8.533     S218.052,238.933,213.333,238.933z" fill="#FFFFFF"/>
			<path d="M213.333,213.333H179.2c-4.719,0-8.533,3.823-8.533,8.533c0,4.71,3.814,8.533,8.533,8.533h34.133     c4.719,0,8.533-3.823,8.533-8.533C221.867,217.156,218.052,213.333,213.333,213.333z" fill="#FFFFFF"/>
			<path d="M153.6,187.733h-34.133c-4.719,0-8.533,3.823-8.533,8.533s3.814,8.533,8.533,8.533H128v42.667     c0,4.71,3.814,8.533,8.533,8.533s8.533-3.823,8.533-8.533V204.8h8.533c4.719,0,8.533-3.823,8.533-8.533     S158.319,187.733,153.6,187.733z" fill="#FFFFFF"/>
			<path d="M392.533,187.733H358.4c-4.719,0-8.533,3.823-8.533,8.533s3.814,8.533,8.533,8.533h34.133     c4.719,0,8.533-3.823,8.533-8.533S397.252,187.733,392.533,187.733z" fill="#FFFFFF"/>
			<path d="M425.233,20.864c-1.05-1.579-2.603-2.756-4.403-3.362C418.688,16.794,367.044,0,256,0S93.312,16.794,91.17,17.502     c-1.801,0.606-3.354,1.783-4.403,3.362C85.316,23.049,51.2,75.793,51.2,213.333c0,136.013,34.039,273.758,34.389,275.14     c0.956,3.789,4.361,6.46,8.277,6.46c30.524,0,46.455,3.396,64.905,7.33C180.173,506.829,204.442,512,256,512     s75.827-5.171,97.229-9.737c18.449-3.934,34.381-7.33,64.905-7.33c3.917,0,7.322-2.671,8.277-6.46     c0.35-1.382,34.389-139.128,34.389-275.14C460.8,75.793,426.684,23.049,425.233,20.864z M411.375,477.926     c-28.092,0.478-44.459,3.968-61.705,7.646c-21.589,4.599-43.913,9.361-93.67,9.361s-72.081-4.762-93.67-9.361     c-17.246-3.678-33.604-7.168-61.705-7.646c-6.596-28.484-32.358-147.226-32.358-264.593c0-115.422,24.969-168.866,31.266-180.514     c12.348-3.43,63.181-15.753,156.467-15.753c93.278,0,144.111,12.322,156.459,15.753c6.34,11.708,31.275,65.152,31.275,180.514     C443.733,330.641,417.971,449.442,411.375,477.926z" fill="#FFFFFF"/>
			<path d="M392.533,213.333H358.4c-4.719,0-8.533,3.823-8.533,8.533v25.6c0,4.71,3.814,8.533,8.533,8.533     c4.719,0,8.533-3.823,8.533-8.533V230.4H384v17.067c0,4.71,3.814,8.533,8.533,8.533s8.533-3.823,8.533-8.533v-25.6     C401.067,217.156,397.252,213.333,392.533,213.333z" fill="#FFFFFF"/>
			<path d="M273.067,204.8c4.719,0,8.533-3.823,8.533-8.533s-3.814-8.533-8.533-8.533h-34.133c-4.719,0-8.533,3.823-8.533,8.533     v25.6c0,4.71,3.814,8.533,8.533,8.533h25.6v8.533h-25.6c-4.719,0-8.533,3.823-8.533,8.533s3.814,8.533,8.533,8.533h34.133     c4.719,0,8.533-3.823,8.533-8.533v-25.6c0-4.71-3.814-8.533-8.533-8.533h-25.6V204.8H273.067z" fill="#FFFFFF"/>
			<path d="M332.8,238.933h-25.6v-42.667c0-4.71-3.814-8.533-8.533-8.533c-4.719,0-8.533,3.823-8.533,8.533v51.2     c0,4.71,3.814,8.533,8.533,8.533H332.8c4.719,0,8.533-3.823,8.533-8.533S337.519,238.933,332.8,238.933z" fill="#FFFFFF"/>
		</g>
	</g>
</g>
<g>
</g>
<g>
</g>
<g>
</g>
<g>
</g>
<g>
</g>
<g>
</g>
<g>
</g>
<g>
</g>
<g>
</g>
<g>
</g>
<g>
</g>
<g>
</g>
<g>
</g>
<g>
</g>
<g>
</g>
</svg>
