<?xml version="1.0" encoding="iso-8859-1"?>
<!-- Generator: Adobe Illustrator 19.0.0, SVG Export Plug-In . SVG Version: 6.00 Build 0)  -->
<svg version="1.1" id="Layer_1" xmlns="http://www.w3.org/2000/svg" xmlns:xlink="http://www.w3.org/1999/xlink" x="0px" y="0px"
	 viewBox="0 0 512 512" style="enable-background:new 0 0 512 512;" xml:space="preserve" fill="#999">
<g>
	<g>
		<path d="M492.896,329.871H322.648l-5.307-50.945h169.187c5.682,0,11.068-2.743,14.698-7.115c3.63-4.371,5.125-10.239,4.081-15.824
			L466.07,46.154c-1.69-9.042-9.581-15.587-18.778-15.587H64.708c-9.197,0-17.088,6.492-18.778,15.532L6.694,255.91
			c-1.044,5.585,0.451,11.544,4.081,15.915c3.63,4.371,9.016,7.1,14.698,7.1h166.639l-5.307,50.945h-167.7
			C8.554,329.871,0,338.424,0,348.975c0,10.551,8.554,19.104,19.104,19.104h163.755l-7.774,75.144h-5.79
			c-10.551,0-19.104,8.554-19.104,19.104c0,10.551,8.554,19.104,19.104,19.104h22.985c0.019,0,0.037,0,0.055,0h124.751
			c0.009,0,0.018,0,0.018,0c0.017,0,0.025,0,0.025,0h25.578c10.551,0,19.104-8.554,19.104-19.104
			c0-10.551-8.554-19.104-19.104-19.104h-8.337l-7.774-75.144h166.299c10.551,0,19.104-8.554,19.104-19.104
			C512,338.424,503.446,329.871,492.896,329.871z M350.249,68.776h81.18l5.055,26.746h-86.235V68.776z M350.249,133.731h93.379
			l5.787,30.567h-99.166V133.731z M350.249,202.507H455.96c0.2,0,0.395,0.467,0.594,0.462l6.967,37.747H350.249V202.507z
			 M161.751,240.716H48.479l6.966-37.747c0.2,0.005,0.395-0.462,0.595-0.462h105.711V240.716z M161.751,164.299H62.585l5.787-30.567
			h93.379V164.299z M161.751,95.522H75.516l5.055-26.746h81.18V95.522z M213.496,443.224l17.029-164.299h48.403l17.028,164.299
			H213.496z M312.04,240.716H199.96v-38.209h112.08V240.716z M312.04,164.299H199.96v-30.567h112.08V164.299z M312.04,95.522H199.96
			V68.776h112.08V95.522z"/>
	</g>
</g>
<g>
	<g>
		<path d="M424.119,443.224h-20.378c-10.551,0-19.104,8.554-19.104,19.104c0,10.551,8.554,19.104,19.104,19.104h20.378
			c10.551,0,19.104-8.554,19.104-19.104C443.224,451.778,434.67,443.224,424.119,443.224z"/>
	</g>
</g>
<g>
</g>
<g>
</g>
<g>
</g>
<g>
</g>
<g>
</g>
<g>
</g>
<g>
</g>
<g>
</g>
<g>
</g>
<g>
</g>
<g>
</g>
<g>
</g>
<g>
</g>
<g>
</g>
<g>
</g>
</svg>
